<svg xmlns="http://www.w3.org/2000/svg" viewBox="0 0 460 700" width="460" height="700" font-family="Helvetica, Arial, sans-serif">
  <title>Liner running on an M5Stack PaperColor</title>

  <!-- device body -->
  <rect x="30" y="20" width="400" height="620" rx="26" fill="#f2f2ef" stroke="#d6d6d2" stroke-width="2"/>
  <!-- bezel inset shading -->
  <rect x="46" y="80" width="368" height="500" rx="6" fill="#e7e7e3"/>

  <!-- top power button -->
  <rect x="190" y="8" width="80" height="16" rx="8" fill="#8a8a86"/>

  <!-- left side buttons: up / down grouped together, top (network) button lower -->
  <rect x="24" y="150" width="8" height="34" rx="3" fill="#c9c9c5"/>
  <rect x="24" y="200" width="8" height="34" rx="3" fill="#c9c9c5"/>
  <rect x="24" y="460" width="8" height="34" rx="3" fill="#c9c9c5"/>

  <!-- screen -->
  <clipPath id="screenClip">
    <rect x="60" y="94" width="340" height="472" rx="2"/>
  </clipPath>
  <rect x="60" y="94" width="340" height="472" fill="#faf9f6"/>

  <g clip-path="url(#screenClip)">

    <!-- ============================= STATE A: Connecting ============================= -->
    <g id="stateA">
      <animate attributeName="opacity" dur="10s" repeatCount="indefinite"
                calcMode="discrete" keyTimes="0;0.30" values="1;0"/>
      <rect x="60" y="94" width="340" height="472" fill="#faf9f6"/>
      <text x="230" y="322" text-anchor="middle" font-size="20" fill="#1a1a1a">Connecting to</text>
      <text x="230" y="350" text-anchor="middle" font-size="20" font-weight="bold" fill="#1a1a1a">Wi-Fi&#8230;</text>
    </g>

    <!-- ============================= STATE B: Now Playing ============================= -->
    <g id="stateB" opacity="0">
      <animate attributeName="opacity" dur="10s" repeatCount="indefinite"
                calcMode="discrete" keyTimes="0;0.33;0.63" values="0;1;0"/>
      <rect x="60" y="94" width="340" height="472" fill="#faf9f6"/>

      <!-- album art: abstract shapes quantized to the Spectra 6 palette -->
      <g>
        <rect x="60" y="94" width="340" height="340" fill="#f4f2ec"/>
        <polygon points="60,434 230,94 400,94 400,434" fill="#f4c400"/>
        <polygon points="60,434 60,220 230,94 60,94" fill="#2e6f40"/>
        <circle cx="270" cy="230" r="95" fill="#c0392b"/>
        <polygon points="60,434 400,434 400,300 200,434" fill="#1b3a6b"/>
        <rect x="60" y="94" width="340" height="340" fill="none" stroke="#1a1a1a" stroke-width="2"/>
      </g>

      <!-- track info -->
      <text x="80" y="470" font-size="22" font-weight="bold" fill="#1a1a1a">Midnight Static</text>
      <text x="80" y="500" font-size="16" fill="#1a1a1a">The Wavelengths</text>
      <text x="80" y="524" font-size="13" fill="#1a1a1a">Liner Notes</text>
    </g>

    <!-- ============================= STATE C: Idle ============================= -->
    <g id="stateC" opacity="0">
      <animate attributeName="opacity" dur="10s" repeatCount="indefinite"
                calcMode="discrete" keyTimes="0;0.66;0.96" values="0;1;0"/>
      <rect x="60" y="94" width="340" height="472" fill="#faf9f6"/>
      <text x="230" y="336" text-anchor="middle" font-size="22" font-weight="bold" fill="#1a1a1a">Nothing Playing</text>
    </g>

    <!-- ============================= e-paper refresh flicker ============================= -->
    <rect x="60" y="94" width="340" height="472" fill="#161616" opacity="0">
      <animate attributeName="opacity" dur="10s" repeatCount="indefinite"
                calcMode="discrete"
                keyTimes="0;0.30;0.315;0.33;0.63;0.645;0.66;0.96;0.98;1"
                values="  0;0   ;1    ;0   ;0   ;1    ;0   ;0   ;1   ;0"/>
    </rect>

  </g>

  <!-- screen frame outline on top -->
  <rect x="60" y="94" width="340" height="472" rx="2" fill="none" stroke="#c4c4c0" stroke-width="1"/>

  <text x="230" y="690" text-anchor="middle" font-size="13" fill="#8a8a86">M5Stack PaperColor &#183; running Liner</text>
</svg>
